<?xml version="1.0" encoding="utf-8"?>
<!-- Generator: Adobe Illustrator 23.0.1, SVG Export Plug-In . SVG Version: 6.00 Build 0)  -->
<svg version="1.1" xmlns="http://www.w3.org/2000/svg" xmlns:xlink="http://www.w3.org/1999/xlink" x="0px" y="0px"
	 viewBox="0 0 200 178" width="200px" height="178px" style="enable-background:new 0 0 200 178;" xml:space="preserve">
<style type="text/css">
	.st0{display:none;}
	.st1{display:inline;fill:white;}
	.st2{fill:white;}
</style>
<g id="Ebene_1">
	<g class="st0">
		<path class="st1" d="M144.7,25.8c0.2,0,0.3,0.1,0.5,0.1c0.9,0,1.7-0.6,1.9-1.5l3.1-11.6c0.1-0.5,0.1-1.1-0.2-1.5
			c-0.3-0.5-0.7-0.8-1.2-0.9L114,1.1c-1-0.3-2.2,0.4-2.4,1.4l-3.1,11.6c-0.3,1.1,0.4,2.2,1.4,2.4l3.5,0.9l-2.1,18.1l-1.1-0.3
			l-0.8-5.6c0-0.3-0.2-0.5-0.4-0.7c-0.2-0.2-0.5-0.2-0.8-0.1l-7.7,2.1l-2.4-9c-0.6-2.1-2.8-3.4-4.9-2.8l-25.1,6.7
			c-2.1,0.6-3.4,2.8-2.8,4.9l2.4,9l-7.7,2.1c-0.3,0.1-0.5,0.3-0.6,0.5c-0.1,0.3-0.1,0.6,0,0.8L64,55.1h-8.3l5,3.7L52.5,62h-0.8v114
			c0,1.1,0.9,2,2,2h92c1.1,0,2-0.9,2-2V62h-0.8l-8.2-3.2l5-3.7h-8.4l1.2-6.6l1.9,0.5c0.2,0,0.3,0.1,0.5,0.1c0.9,0,1.7-0.6,1.9-1.5
			l0.5-1.9c0.3-1.1-0.4-2.2-1.4-2.4l-6.1-1.6l7.3-16.7L144.7,25.8z M128,40l5.5-17.2l5.7,1.5l-7.3,16.7L128,40z M121.1,19.5
			l-3.8,17.6l-3.9-1.1l2.1-18.1L121.1,19.5z M123,20l8.6,2.3l-5.5,17.2l-6.9-1.8L123,20z M113.5,3l34.8,9.3l-3.1,11.6c0,0,0,0,0,0
			l-34.8-9.3L113.5,3z M67.2,30.2c-0.3-1.1,0.3-2.2,1.4-2.4L93.7,21c1.1-0.3,2.2,0.4,2.4,1.4l2.4,9L96.6,32
			c-0.5,0.1-0.8,0.6-0.7,1.1l0.6,5.4c-3.7,0-7.9,0.5-11.8,1.5c-3.6,1-7.1,2.4-10.1,4l-2-4.7c-0.2-0.5-0.7-0.7-1.2-0.6l-1.9,0.5
			L67.2,30.2z M97.5,46.2l-19.6,5.2l-2.4-5.6c2.9-1.6,6.3-3,9.8-4c3.8-1,7.9-1.5,11.5-1.5L97.5,46.2z M71.2,40.9l5.2,12.2
			c0.2,0.5,0.7,0.7,1.2,0.6L98.9,48c0.5-0.1,0.8-0.6,0.7-1.1L98,33.7l2.1-0.6c0,0,0,0,0,0s0,0,0,0l7.6-2l0.5,3.6l-3-0.8
			c-1-0.3-2.2,0.4-2.4,1.4l-0.5,1.9c-0.1,0.5-0.1,1.1,0.2,1.5c0.3,0.5,0.7,0.8,1.2,0.9l1.9,0.5l-6.3,18L84.8,62H68.9l-7.4-18.5
			L71.2,40.9z M129.3,62l3.3-14l2,0.5L132,62H129.3z M106.2,58.5l1.5,0.4l1.5,3.1h-4.2L106.2,58.5z M127.4,61.1l-0.2,0.9l-20.3-5.3
			l0.3-1L127.4,61.1z M111.3,61.5l-0.9-1.9l9.2,2.4h-8.2C111.4,61.8,111.4,61.7,111.3,61.5z M127.9,59.2l-7.8-2.1h8.3L127.9,59.2z
			 M107.7,53.8l2.2-7.3l1.2,8.2L107.7,53.8z M103.1,62h-3l7.3-20.8l1.9,0.5l0,0.2L103.1,62z M92.5,62l6-1.5L98,62H92.5z M64.7,59.3
			l-3-2.3h3.1l2,4.9h-8.9L64.7,59.3z M145.7,176h-92V64h92V176z M137.7,57.1l-3,2.3l6.8,2.7H134l1-4.9H137.7z M128.8,55.1h-15.6
			l-1.9-13l0.1-0.3l19.3,5.2L128.8,55.1z M139,47.1l-34.8-9.3l0.5-1.9l34.8,9.3L139,47.1z"/>
		<path class="st1" d="M127.7,85c0-0.6-0.4-1-1-1h-3c-0.6,0-1,0.4-1,1v23c0,12.7-10.3,23-23,23c-4.3,0-8.3-1.2-11.8-3.2h5.8
			c0.4,0,0.8-0.3,0.8-0.8s-0.3-0.8-0.8-0.8h-8c-1.3-1-2.6-2.2-3.7-3.5h8.6c0.4,0,0.8-0.3,0.8-0.8s-0.3-0.8-0.8-0.8h-9.8
			c-0.8-1.1-1.5-2.3-2-3.5h8.8c0.4,0,0.8-0.3,0.8-0.8s-0.3-0.8-0.8-0.8h-9.5c-0.4-1.1-0.8-2.3-1-3.5h9.5c0.4,0,0.8-0.3,0.8-0.8
			s-0.3-0.8-0.8-0.8h-9.8c-0.2-1.1-0.2-2.1-0.2-3.2v-0.2h9c0.4,0,0.8-0.3,0.8-0.8s-0.3-0.8-0.8-0.8h-9v-3.5h9c0.4,0,0.8-0.3,0.8-0.8
			s-0.3-0.8-0.8-0.8h-9v-3.5h9c0.4,0,0.8-0.3,0.8-0.8s-0.3-0.8-0.8-0.8h-9v-3.5h9c0.4,0,0.8-0.3,0.8-0.8s-0.3-0.8-0.8-0.8h-9v-3.5h9
			c0.4,0,0.8-0.3,0.8-0.8s-0.3-0.8-0.8-0.8h-9V85c0-0.6-0.4-1-1-1h-3c-0.6,0-1,0.4-1,1v23c0,15.4,12.6,28,28,28
			c3.9,0,7.6-0.8,11-2.3c0,0,0,0,0,0h12c0.4,0,0.8-0.3,0.8-0.8s-0.3-0.8-0.8-0.8h-9c1.7-1,3.4-2.2,4.8-3.5c0.1,0,0.1,0,0.2,0h10
			c0.4,0,0.8-0.3,0.8-0.8s-0.3-0.8-0.8-0.8H120c1-1.1,2-2.3,2.8-3.5h8.9c0.4,0,0.8-0.3,0.8-0.8s-0.3-0.8-0.8-0.8h-7.9
			c0.7-1.1,1.3-2.3,1.8-3.5c0,0,0.1,0,0.1,0h9c0.4,0,0.8-0.3,0.8-0.8s-0.3-0.8-0.8-0.8h-8.6c0.4-1.1,0.7-2.3,1-3.5h8.6
			c0.4,0,0.8-0.3,0.8-0.8s-0.3-0.8-0.8-0.8h-8.3c0.2-1.1,0.3-2.3,0.3-3.5h9c0.4,0,0.8-0.3,0.8-0.8s-0.3-0.8-0.8-0.8h-9v-3.5h9
			c0.4,0,0.8-0.3,0.8-0.8s-0.3-0.8-0.8-0.8h-9v-3.5h9c0.4,0,0.8-0.3,0.8-0.8s-0.3-0.8-0.8-0.8h-9v-3.5h9c0.4,0,0.8-0.3,0.8-0.8
			s-0.3-0.8-0.8-0.8h-9v-3.5h9c0.4,0,0.8-0.3,0.8-0.8s-0.3-0.8-0.8-0.8h-9L127.7,85L127.7,85z M73.7,108V86h1v22
			c0,13.8,11.2,25,25,25s25-11.2,25-25V86h1v22c0,14.3-11.7,26-26,26S73.7,122.3,73.7,108z"/>
	</g>
</g>
<g id="Layer_2">
	<g>
		<g>
			<path class="st2" d="M132.9,99.4c0-1.7,0-3.3,0-5c0-3.8,0-7.6,0-11.4c0-1.3,0-2.5,0-3.8c0-3.7,0-7.5-0.5-11.1
				c-1.8-12.9-12.2-23.6-25.9-26.8c-13.7-3.1-27.9,1.9-36.1,12.8C66,59.8,64,66.2,64.2,72.9c0.1,2.8,2.4,5.2,5.2,5.4
				c3.1,0.2,5.4-1.6,6.1-4.7c0.2-0.8,0.3-1.6,0.4-2.5c0.5-5.6,3.7-10.9,8.7-14.6c4.1-3.1,9.2-4.7,14.1-4.7c1,0,2.1,0.1,3.1,0.2
				c10.7,1.5,18.9,10.1,19.4,20.4c0.5,9.7-7,18.9-17.3,21.2c-1.6,0.4-3.3,0.7-4.9,0.9c-1.7,0.3-3.4,0.6-5,1
				C75.7,99.8,63,115,63,132.5c0,9.2,0,18.4,0,27.6c0,10.5,8.5,18.4,19.6,18.4c10.2,0,20.4,0,30.6,0c11.2,0,19.7-7.9,19.7-18.4
				c0-10.4,0-20.7,0-31.1l0-15.3h0V99.4z M125.2,171.5c-3.2,3-7.5,4.6-12.2,4.6c-0.1,0-0.2,0-0.3,0c-6.4-0.1-13-0.1-19.3-0.1
				c-3.6,0-7.2,0-10.9,0c-8.3,0-15-5.1-16.6-12.6c-0.2-0.9-0.3-1.8-0.3-2.7c0-2.8,0-5.7,0-8.5c0-6.9-0.1-14.1,0.1-21.2
				c0.4-16.1,12.1-29.5,29.1-33.3c1.8-0.4,3.6-0.7,5.3-0.9c1.9-0.3,3.6-0.5,5.3-0.9c10.7-2.6,18.5-12.2,18.4-22.8
				c0-10.6-7.9-20.2-18.6-22.8c-6.9-1.7-14-0.7-19.9,2.8c-6,3.5-10.1,9-11.5,15.5c-0.1,0.4-0.1,0.9-0.1,1.5c0,0.4,0,0.7-0.1,1.1
				c0,0.1,0,0.3,0,0.4c0,0.6-0.1,1.3-0.4,2c-0.3,0.7-0.9,1.2-1.2,1.6c-0.1,0.1-0.2,0.2-0.3,0.3L70,77.2l-1.6-1.6
				c-0.1-0.1-0.2-0.2-0.3-0.3c-0.5-0.4-1.3-1.1-1.5-2.1c-0.2-1.1-0.2-2.4,0-3.7C68.5,57.6,75,49.3,85.9,45c9.8-3.9,21-2.9,29.9,2.6
				c8.9,5.5,14.3,14.8,14.4,24.9c0.1,10.1,0,20.3,0,30.1c0,3.8,0,7.7,0,11.5l0,1.9c0,4.3,0,8.6,0,12.8c0,10.1-0.1,20.5,0.1,30.8
				C130.3,164.1,128.5,168.4,125.2,171.5z"/>
			<path class="st2" d="M115.8,141.5c3.5-4,2.4-8,0.8-10.7c-2.3-3.9-5.6-5.8-10.1-5.6c-2.5,0.1-4.9,1.1-7.2,3.1l-1.3,1.1L96,128
				c-0.3-0.2-0.5-0.4-0.8-0.6c-2.1-1.5-4.3-2.2-6.5-2.2c-0.6,0-1.1,0-1.7,0.1c-4.6,0.8-7.5,3.1-9,7.1c-1.4,3.7-0.5,7.2,2.6,10.6
				c1.5,1.6,2.8,3,4.1,4.1l1.7,1.5c2.6,2.3,5.4,4.8,8.2,6.9c2.3,1.7,2.7,1.7,5.3,0.1C105.3,152.2,110.3,147.8,115.8,141.5z M100,153
				c-0.8,0.7-1.6,1.1-2.5,1.1c-0.9,0-1.7-0.4-2.5-1.1c-1.4-1.3-2.8-2.6-4.2-3.9c-2.9-2.7-5.9-5.4-8.8-8.3c-1.5-1.5-2.3-3.4-2.2-5.4
				c0.1-2.1,1.1-4.2,2.8-5.8c3.4-3,8.5-3,11.9,0c1.1,1,2.2,2,3.3,3.1c0,0,0.1,0.1,0.1,0.1c1-1,1.9-1.9,2.9-2.8
				c3.5-3.3,8.7-3.4,12.1-0.3c1.7,1.6,2.7,3.6,2.7,5.8c0,2.1-0.9,4.2-2.6,5.7c-2.7,2.6-5.6,5.1-8.3,7.5
				C103.1,150.2,101.6,151.6,100,153z"/>
		</g>
		<path class="st2" d="M142.7,84.5h-10c-0.3,0-0.6-0.3-0.6-0.6l0,0c0-0.3,0.3-0.6,0.6-0.6h10c0.3,0,0.6,0.3,0.6,0.6l0,0
			C143.3,84.2,143,84.5,142.7,84.5z"/>
		<path class="st2" d="M142.7,89.7h-10c-0.3,0-0.6-0.3-0.6-0.6l0,0c0-0.3,0.3-0.6,0.6-0.6h10c0.3,0,0.6,0.3,0.6,0.6l0,0
			C143.3,89.4,143,89.7,142.7,89.7z"/>
		<path class="st2" d="M142.7,94.9h-10c-0.3,0-0.6-0.3-0.6-0.6l0,0c0-0.3,0.3-0.6,0.6-0.6h10c0.3,0,0.6,0.3,0.6,0.6l0,0
			C143.3,94.6,143,94.9,142.7,94.9z"/>
		<path class="st2" d="M142.7,100.1h-10c-0.3,0-0.6-0.3-0.6-0.6l0,0c0-0.3,0.3-0.6,0.6-0.6h10c0.3,0,0.6,0.3,0.6,0.6l0,0
			C143.3,99.9,143,100.1,142.7,100.1z"/>
		<path class="st2" d="M142.7,105.3h-10c-0.3,0-0.6-0.3-0.6-0.6l0,0c0-0.3,0.3-0.6,0.6-0.6h10c0.3,0,0.6,0.3,0.6,0.6l0,0
			C143.3,105.1,143,105.3,142.7,105.3z"/>
		<path class="st2" d="M142.7,110.5h-10c-0.3,0-0.6-0.3-0.6-0.6l0,0c0-0.3,0.3-0.6,0.6-0.6h10c0.3,0,0.6,0.3,0.6,0.6l0,0
			C143.3,110.3,143,110.5,142.7,110.5z"/>
		<path class="st2" d="M142.7,115.8h-10c-0.3,0-0.6-0.3-0.6-0.6l0,0c0-0.3,0.3-0.6,0.6-0.6h10c0.3,0,0.6,0.3,0.6,0.6l0,0
			C143.3,115.5,143,115.8,142.7,115.8z"/>
		<path class="st2" d="M142.7,121h-10c-0.3,0-0.6-0.3-0.6-0.6l0,0c0-0.3,0.3-0.6,0.6-0.6h10c0.3,0,0.6,0.3,0.6,0.6l0,0
			C143.3,120.7,143,121,142.7,121z"/>
		<path class="st2" d="M142.7,126.2h-10c-0.3,0-0.6-0.3-0.6-0.6l0,0c0-0.3,0.3-0.6,0.6-0.6h10c0.3,0,0.6,0.3,0.6,0.6l0,0
			C143.3,125.9,143,126.2,142.7,126.2z"/>
		<path class="st2" d="M142.7,131.4h-10c-0.3,0-0.6-0.3-0.6-0.6v0c0-0.3,0.3-0.6,0.6-0.6h10c0.3,0,0.6,0.3,0.6,0.6v0
			C143.3,131.1,143,131.4,142.7,131.4z"/>
		<path class="st2" d="M142.7,136.6h-10c-0.3,0-0.6-0.3-0.6-0.6l0,0c0-0.3,0.3-0.6,0.6-0.6h10c0.3,0,0.6,0.3,0.6,0.6l0,0
			C143.3,136.4,143,136.6,142.7,136.6z"/>
		<path class="st2" d="M142.7,141.8h-10c-0.3,0-0.6-0.3-0.6-0.6l0,0c0-0.3,0.3-0.6,0.6-0.6h10c0.3,0,0.6,0.3,0.6,0.6l0,0
			C143.3,141.6,143,141.8,142.7,141.8z"/>
	</g>
	<path class="st2" d="M110,155.8h-10c-0.3,0-0.6-0.3-0.6-0.6v0c0-0.3,0.3-0.6,0.6-0.6h10c0.3,0,0.6,0.3,0.6,0.6v0
		C110.6,155.5,110.4,155.8,110,155.8z"/>
	<path class="st2" d="M76.1,167.1h-10c-0.3,0-0.6-0.3-0.6-0.6l0,0c0-0.3,0.3-0.6,0.6-0.6h10c0.3,0,0.6,0.3,0.6,0.6l0,0
		C76.7,166.8,76.5,167.1,76.1,167.1z"/>
	<path class="st2" d="M74.6,162.5h-10c-0.3,0-0.6-0.3-0.6-0.6l0,0c0-0.3,0.3-0.6,0.6-0.6h10c0.3,0,0.6,0.3,0.6,0.6l0,0
		C75.2,162.3,74.9,162.5,74.6,162.5z"/>
	<path class="st2" d="M74.6,158h-10c-0.3,0-0.6-0.3-0.6-0.6l0,0c0-0.3,0.3-0.6,0.6-0.6h10c0.3,0,0.6,0.3,0.6,0.6l0,0
		C75.2,157.7,74.9,158,74.6,158z"/>
	<path class="st2" d="M74.6,153.4h-10c-0.3,0-0.6-0.3-0.6-0.6l0,0c0-0.3,0.3-0.6,0.6-0.6h10c0.3,0,0.6,0.3,0.6,0.6l0,0
		C75.2,153.1,74.9,153.4,74.6,153.4z"/>
	<path class="st2" d="M74.6,148.8h-10c-0.3,0-0.6-0.3-0.6-0.6l0,0c0-0.3,0.3-0.6,0.6-0.6h10c0.3,0,0.6,0.3,0.6,0.6l0,0
		C75.2,148.6,74.9,148.8,74.6,148.8z"/>
	<path class="st2" d="M115.6,150.3h-10c-0.3,0-0.6-0.3-0.6-0.6l0,0c0-0.3,0.3-0.6,0.6-0.6h10c0.3,0,0.6,0.3,0.6,0.6l0,0
		C116.2,150,115.9,150.3,115.6,150.3z"/>
	<path class="st2" d="M121.2,144.8h-10c-0.3,0-0.6-0.3-0.6-0.6l0,0c0-0.3,0.3-0.6,0.6-0.6h10c0.3,0,0.6,0.3,0.6,0.6l0,0
		C121.8,144.6,121.5,144.8,121.2,144.8z"/>
	<path class="st2" d="M126.7,139.4h-10c-0.3,0-0.6-0.3-0.6-0.6l0,0c0-0.3,0.3-0.6,0.6-0.6h10c0.3,0,0.6,0.3,0.6,0.6l0,0
		C127.3,139.1,127.1,139.4,126.7,139.4z"/>
</g>
</svg>
