<?xml version="1.0" encoding="utf-8"?>
<!-- Generator: Adobe Illustrator 23.0.1, SVG Export Plug-In . SVG Version: 6.00 Build 0)  -->
<svg 
version="1.1" 
id="Ebene_1" 
xmlns="http://www.w3.org/2000/svg" 
xmlns:xlink="http://www.w3.org/1999/xlink" 
x="0px" 
y="0px"
viewBox="0 0 200 178" 
style="enable-background:new 0 0 200 178;" 
width="200px" height="178px" 
xml:space="preserve">
<style type="text/css">
.st0 {
	fill: #ffffff;
}
</style>
<g>
	<path
	class="st0" d="M183.6,83.1l-3.2-6.4l-4.4-4.4l-6.5-3.4L151,87.4V48c0-1.1-0.9-2-2-2H51c-1.1,0-2,0.9-2,2v128c0,1.1,0.9,2,2,2
		h98c1.1,0,2-0.9,2-2v-60.3L183.6,83.1z M147,119.8h2v3.5h-5.6L147,119.8C146.9,119.7,147,119.8,147,119.8z M100.3,157
		c-0.6-1-1.3-1.9-2.1-2.7c-0.8-0.8-1.7-1.5-2.7-2.1l5.8-12.2l4.5,2.3l0.7,3.7l3.7,0.7l2.3,4.5L100.3,157z M94.6,154
		c0.8,0.5,1.5,1.1,2.2,1.7c0.7,0.7,1.2,1.4,1.7,2.2l-7.4,3.5L94.6,154z M175.3,74.4l2.8,2.8l-67.5,67.5l-2.4-0.5l-0.5-2.4
		L175.3,74.4z M150.4,107.8h5.7l-3.5,3.5h-5.7L150.4,107.8z M151.9,106.2l3.5-3.5h5.7l-3.5,3.5H151.9z M156.9,101.2l3.5-3.5h5.7
		l-3.5,3.5H156.9z M161.9,96.2l3.5-3.5h5.7l-3.5,3.5H161.9z M166.9,91.2l3.5-3.5h5.7l-3.5,3.5H166.9z M171.9,86.2l3.5-3.5h5.7
		l-3.5,3.5H171.9z M142.6,121.2h-5.7l3.5-3.5h5.7L142.6,121.2z M113,147.8h3.1l-2,2L113,147.8z M117.6,146.2h-5.3l-0.1-0.2l3.3-3.3
		h5.7L117.6,146.2z M122.6,141.2h-5.7l3.5-3.5h5.7L122.6,141.2z M127.6,136.2h-5.7l3.5-3.5h5.7L127.6,136.2z M132.6,131.2h-5.7
		l3.5-3.5h5.7L132.6,131.2z M137.6,126.2h-5.7l3.5-3.5h5.7L137.6,126.2z M147.6,116.2h-5.7l3.5-3.5h5.7L147.6,116.2z M180.4,81.2
		h-3.5l2.3-2.3L180.4,81.2z M169.9,71.3l3.7,1.9l-67.1,67.1l-3.8-1.9L169.9,71.3z M51,176V48h98v41.4l-38.7,38.7
		c-0.1,0-0.2-0.1-0.3-0.1l-1.6,2l-9,9l0.1,0.1l-12.6,26.5l1.9-0.9c0.1,0,0.1,0,0.2,0h10c0.4,0,0.8-0.3,0.8-0.8s-0.3-0.8-0.8-0.8
		h-7.1l7.4-3.5h9.8c0.4,0,0.8-0.3,0.8-0.8s-0.3-0.8-0.8-0.8h-6.6l7.4-3.5h9.2c0.4,0,0.8-0.3,0.8-0.8s-0.3-0.8-0.8-0.8h-6.1l0.5-0.2
		l0.1,0.1l3.4-3.4c0,0,0.1,0,0.1,0h10c0.4,0,0.8-0.3,0.8-0.8s-0.3-0.8-0.8-0.8h-8.6l3.5-3.5c0,0,0.1,0,0.1,0h10
		c0.4,0,0.8-0.3,0.8-0.8s-0.3-0.8-0.8-0.8h-8.6l3.5-3.5c0,0,0.1,0,0.1,0h10c0.4,0,0.8-0.3,0.8-0.8s-0.3-0.8-0.8-0.8h-8.6l3.5-3.5
		c0,0,0.1,0,0.1,0h10c0.4,0,0.8-0.3,0.8-0.8s-0.3-0.8-0.8-0.8h-8.6l3.5-3.5c0,0,0.1,0,0.1,0h10c0.4,0,0.8-0.3,0.8-0.8
		s-0.3-0.8-0.8-0.8h-8.6l3.5-3.5c0,0,0.1,0,0.1,0h7V176L51,176L51,176z M149,118.2h-0.6l0.6-0.6V118.2z"/>
</g>
<g>
	<path class="st0" d="M95.3,106.8c-0.1-2.3-0.9-4.1-2.3-5.3c-1.4-1.2-3.4-1.8-5.7-1.6c-2.7,0.2-5.2,1.2-7.4,2.9
		c-2.1,1.6-3.4,4-3.7,6.5c-0.3,2.4,0.5,4.8,2,6.7c1.7,2,4,3.2,6.5,3.4c2.5,0.2,4.8-0.7,6.7-2.3C94.2,114.5,95.5,111,95.3,106.8z
		 M90.5,114.8c-1.2,1.4-3,2.2-4.9,2.3c-0.1,0-0.1,0-0.2,0c-1.9,0-3.7-0.8-5-2.1c-1.3-1.4-2-3.2-1.9-5.1c0.1-1.9,0.9-3.6,2.3-4.8
		c1.5-1.3,3.2-2.2,5.4-2.8c0.2-0.1,0.4-0.1,0.6-0.1l0.2,0c1.8-0.3,3.2,0,4.3,0.9c1.2,1,1.8,2.5,1.9,4.6l0,0
		C93.1,109.5,92.6,112.3,90.5,114.8z"/>
	<path class="st0" d="M122.6,102c-2.5-2.7-5.9-4-10.1-3.9c-2.3,0.1-4,0.8-5.2,2.2c-1.4,1.5-2,3.9-1.8,6.9c0.1,1.7,1.1,4.4,3.3,6.9
		c1.7,1.9,3.9,3,6.4,3.2c2.5,0.2,4.8-0.7,6.7-2.4c1.8-1.6,2.9-3.9,3-6.4C125.1,106.1,124.2,103.8,122.6,102z M121.4,112.2
		c-1.1,1.5-2.8,2.5-4.7,2.8c-0.3,0-0.6,0.1-0.9,0.1c-1.6,0-3.2-0.5-4.4-1.6c-1.9-1.6-3.4-4.6-3.7-7.4c-0.1-1.8,0.3-3.2,1.2-4.3
		c1-1,2.4-1.5,4.1-1.4c2.2,0.1,4.4,0.7,6.4,2c1.6,1,2.7,2.6,3.1,4.4C122.9,108.7,122.5,110.6,121.4,112.2z"/>
	<path class="st0" d="M97.3,115.2c-1.6,2.3-2.5,5.1-2.8,8.6c-0.1,2,0.5,3.8,1.8,5.2c1.4,1.5,3.2,2.3,5.3,2.3c1.9,0,3.6-0.7,4.9-2.1
		c1.4-1.5,2.1-3.6,2-5.9c-0.4-2.3-1.4-5.7-4-8.6c-1.1-1.2-2.3-1.9-3.5-1.9c-0.1,0-0.1,0-0.2,0C99.5,113,98.3,113.8,97.3,115.2z
		 M100.8,115.2c0.4,0,1.1,0,1.8,0.8c2.2,2.5,3.4,5.3,3.7,8.3c0.1,0.7-0.2,1.4-0.4,1.9l0,0.1c-0.2,0.6-1.1,1.1-1.7,1
		c-0.7-0.1-1.2-0.9-1.2-1.3c-0.1-0.4-0.1-0.7-0.1-1c0-0.1,0-0.3,0-0.4c-0.1-0.9-0.5-1.3-1.2-1.3c-0.3,0-1.1,0.1-1.1,1.3l0.6,0.2
		l-1.7,3.9l-1-1.3c-0.1-0.1-0.2-0.2-0.3-0.3c-0.3-0.3-0.7-0.7-0.9-1.3c-0.6-1.9-0.1-3.7,0.4-5.1c0.5-1.5,1.2-2.9,1.9-4.2
		C99.8,115.5,100.5,115.2,100.8,115.2z"/>
	<path class="st0" d="M134.1,88.9c-0.1-0.8-0.3-1.5-0.4-2.3c-0.3-1.6-0.5-3.3-0.9-4.9c-2.2-8.8-7-15.4-14.3-19.8
		c-9.9-5.8-20.6-6.7-32-2.8c-8.8,3.1-15,8.7-18.6,16.5c-4.7,10.5-4.5,21.1,0.7,31.6c1,2,1.5,4.1,1.6,6.7c0,1.2-0.6,2.1-1.7,2.2
		c-0.4,0.1-0.5,0.1-0.4,0.7c0.1,0.4,0.1,0.8,0.2,1.3c0.2,1.4,0.3,2.9,0.7,4.3c1,4.2,3.2,6.4,6.8,6.9c1.4,0.2,2.8,0.2,4.3,0.2
		c0.4,0,0.7,0,1.1,0c0.2,0,0.4,0,0.7,0l0.1,0c0.7,0,2,0,2.5,1.3c0.5,1.2,1,3-0.1,4.8c-0.3,0.5-0.3,0.9-0.1,1.4
		c0.9,2.1,2.5,3.8,4.8,5.1c1.8,1,3.7,1.7,5.9,2.1l1-2.2c-0.8-0.1-1.5-0.3-2.2-0.5c-2-0.5-3.8-1.5-5.3-2.7c-1.4-1.2-1.5-2.6-1.4-3.8
		c0.1-1.2,0.2-2.9-0.2-4.3c-0.5-2.4-2.3-3.7-5-3.6c-0.5,0-0.9,0-1.4,0.1c-0.9,0.1-1.8,0.1-2.8,0.1c-3,0-5-1.3-6-4.1
		c-0.4-1.1-0.7-2.3-0.9-3.5c-0.1-0.8,0.3-1.8,0.7-2.3c0.9-1.1,1.2-2.2,1.1-3.6l-0.1-0.8c-0.2-2-0.3-4.1-0.2-6.1
		c0.2-3.5,2.1-6.5,5.4-8.6c0.6-0.4,1-0.8,1-1.2c0-0.4-0.3-0.8-0.9-1.3c-0.7-0.6-1.1-1.5-1.3-2.2c-0.4-1.7-1.2-3-2.4-4.1
		c-0.6-0.5-1.3-0.6-1.7-0.1c-0.7,0.7-0.1,1.5,0.1,1.7c2.4,2.6,2.6,5,0.6,8l-0.2,0.3c-0.3,0.4-0.6,0.9-1,1.3c-0.1,0.1-1,1-2,0.8
		c-0.7-0.2-1.5-0.9-1.6-1.6c-0.4-1.7-0.7-3.4-1.1-5.1l-0.3-1.8C66.6,86,68,79.9,71.1,74.6c4.2-7.2,10.6-12,19.2-14.3
		c8.8-2.4,17.2-1.5,25,2.5c8,4.1,13.3,10.9,15.5,20.2c1.1,4.6,1.3,8.8,0.7,12.9c-0.1,0.6-0.6,1.7-1.5,2c-0.9,0.3-1.8-0.3-2.3-0.8
		c-1-1-1.6-1.8-2.1-2.6c-1.2-2-1.1-4.1,0.3-6.1l0.3-0.4c0.4-0.5,0.5-1.3-0.1-1.8c-0.8-0.6-1.5,0.1-1.7,0.4c-1,1.2-1.6,2.6-1.8,4.3
		c-0.1,0.5-0.3,1.7-1.1,2.5c-0.4,0.5-0.6,1-0.6,1.3c0.1,0.5,0.6,0.8,0.9,0.9c3.2,1.4,5.4,3.7,6.5,6.9c0.3,0.8,0.4,1.6,0.5,2.6
		c0,0.5,0.1,1,0.1,1.4l3.2-3.3C133.7,98.7,134.4,93.9,134.1,88.9z"/>
</g>
</svg>
