<?xml version="1.0" encoding="utf-8"?>
<!-- Generator: Adobe Illustrator 23.0.1, SVG Export Plug-In . SVG Version: 6.00 Build 0)  -->
<svg version="1.1" id="Ebene_1" xmlns="http://www.w3.org/2000/svg" xmlns:xlink="http://www.w3.org/1999/xlink" x="0px" y="0px"
	 viewBox="0 0 200 178" style="enable-background:new 0 0 200 178;" width="200px" height="178px" xml:space="preserve">
<style type="text/css">
	.st0{display:none;}
	.st1{display:inline;fill:white;}
	.st2{fill:white;}
</style>
<g class="st0">
	<path class="st1" d="M160.6,110.3l-4.6-3.7V50c0-0.6-0.4-1-1-1H49c-0.6,0-1,0.4-1,1v56.6l-4.6,3.7c-0.2,0.2-0.4,0.5-0.4,0.8V176
		c0,1.1,0.9,2,2,2h114c1.1,0,2-0.9,2-2v-64.9C161,110.8,160.9,110.5,160.6,110.3z M152.4,103.8h1.6v1.3L152.4,103.8z M50,51h104
		v51.2h-3.5l-4.4-3.5h6.9c0.4,0,0.8-0.3,0.8-0.8s-0.3-0.8-0.8-0.8h-8.8l-4.4-3.5h7.2c0.4,0,0.8-0.3,0.8-0.8s-0.3-0.8-0.8-0.8h-9.1
		l-4.4-3.5h7.5c0.4,0,0.8-0.3,0.8-0.8s-0.3-0.8-0.8-0.8h-9.4l-4.4-3.5h7.8c0.4,0,0.8-0.3,0.8-0.8s-0.3-0.8-0.8-0.8h-9.7l-4.4-3.5
		h8.1c0.4,0,0.8-0.3,0.8-0.8s-0.3-0.8-0.8-0.8h-10l-4.4-3.5h8.4c0.4,0,0.8-0.3,0.8-0.8s-0.3-0.8-0.8-0.8h-10.3l-7.8-6.2
		c-0.8-0.7-1.8-1.1-2.9-1.1c-1.1,0-2.1,0.4-2.9,1L50,105V51z M159,176l-114,0v-3.3h11c0.4,0,0.8-0.3,0.8-0.8s-0.3-0.8-0.8-0.8H45
		v-3.5h10c0.4,0,0.8-0.3,0.8-0.8s-0.3-0.8-0.8-0.8H45v-3.5h10c0.4,0,0.8-0.3,0.8-0.8s-0.3-0.8-0.8-0.8H45v-3.5h9
		c0.4,0,0.8-0.3,0.8-0.8s-0.3-0.8-0.8-0.8h-9v-3.5h9c0.4,0,0.8-0.3,0.8-0.8s-0.3-0.8-0.8-0.8h-9v-3.5h9c0.4,0,0.8-0.3,0.8-0.8
		s-0.3-0.8-0.8-0.8h-9v-3.5h8c0.4,0,0.8-0.3,0.8-0.8s-0.3-0.8-0.8-0.8h-8v-3.5h9c0.4,0,0.8-0.3,0.8-0.8s-0.3-0.8-0.8-0.8h-9v-3.5h9
		c0.4,0,0.8-0.3,0.8-0.8s-0.3-0.8-0.8-0.8h-9v-3.5h9c0.4,0,0.8-0.3,0.8-0.8s-0.3-0.8-0.8-0.8h-9v-3.5h8c0.4,0,0.8-0.3,0.8-0.8
		s-0.3-0.8-0.8-0.8h-8v-3.5h7c0.4,0,0.8-0.3,0.8-0.8s-0.3-0.8-0.8-0.8h-7v-4.7l55.4-44c0.8-0.7,2.3-0.8,3.2,0l38.7,30.7
		c0.1,0.2,0.3,0.3,0.5,0.4l16.2,12.8V176z"/>
	<path class="st1" d="M82,147h40c0.6,0,1-0.4,1-1s-0.4-1-1-1H82c-0.6,0-1,0.4-1,1S81.4,147,82,147z"/>
	<path class="st1" d="M37,132H17c-0.6,0-1,0.4-1,1s0.4,1,1,1h20c0.6,0,1-0.4,1-1S37.6,132,37,132z"/>
	<path class="st1" d="M37,140H12c-0.6,0-1,0.4-1,1s0.4,1,1,1h25c0.6,0,1-0.4,1-1S37.6,140,37,140z"/>
	<path class="st1" d="M37,148H7c-0.6,0-1,0.4-1,1s0.4,1,1,1h30c0.6,0,1-0.4,1-1S37.6,148,37,148z"/>
	<path class="st1" d="M37,156H17c-0.6,0-1,0.4-1,1s0.4,1,1,1h20c0.6,0,1-0.4,1-1S37.6,156,37,156z"/>
	<path class="st1" d="M124,153H80c-0.6,0-1,0.4-1,1s0.4,1,1,1h44c0.6,0,1-0.4,1-1S124.6,153,124,153z"/>
	<path class="st1" d="M120.5,161h-38c-0.6,0-1,0.4-1,1s0.4,1,1,1h38c0.6,0,1-0.4,1-1S121.1,161,120.5,161z"/>
	<path class="st1" d="M134,120c-0.6,0-1,0.4-1,1v18c0,0.6,0.4,1,1,1h16c0.6,0,1-0.4,1-1v-18c0-0.6-0.4-1-1-1H134z M149,138h-14v-16
		h14V138z"/>
</g>
<g>
	<path class="st2" d="M95.6,161.4c5.1-5,10.1-10.1,15.2-15.2c1.5-1.5,2.3-3.4,2.2-5.5c0-2-0.8-3.8-2.3-5.2c-0.4-0.4-0.8-0.7-1.4-1.1
		c-0.3-0.2-0.6-0.4-0.9-0.7l-2-1.5l1.9-1.6c2.6-2.2,4.3-4.3,4.2-7.3c-0.1-3.1-1.5-5.2-4.4-6.7l-1.5-0.8l0.5-1.6
		c2-6.2,0.3-8.4-1.8-9.9c-3.8-2.6-7.2-2.1-10.8,1.6l-1.7,1.8l-2.2-3.3c-1.2-1.8-3.2-2.9-5.4-3.2c-2.2-0.2-4.3,0.5-5.8,2
		c-5.8,5.8-11.6,11.6-17.3,17.3l-5.1,5.1c-0.3,0.3-0.6,0.6-0.9,0.9l-4,4v-6c0-1,0-1.9,0-2.9c0-2.3,0-4.6-0.1-6.9
		c-0.1-1.5-0.3-2.7-0.8-3.6c-1.2-2.4-3.2-4-5.7-4.4c-2.4-0.4-4.9,0.4-6.8,2.2c-1.7,1.6-2.4,3.6-2.3,5.8l2.1,2.1c0-0.7,0-1.4,0-2
		c0-1.2,0.3-2.2,0.7-3.1c1.3-2.4,3.9-3.5,6.5-2.7c2.4,0.7,4,2.9,4,5.5c0,3.6,0,7.2,0,10.8l0,7.4c0,0.6,0.2,1.2,0.6,1.3
		c0.6,0.2,1,0.2,1.5-0.4c4.6-4.6,9.3-9.3,13.9-13.9l5.7-5.7c1.9-1.9,3.7-3.7,5.5-5.6l3.4-3.4c1.7-1.7,4-2.3,6-1.4
		c1.7,0.7,2.8,2.1,3.1,3.7c0.3,1.7-0.3,3.6-1.7,5c-6.3,6.4-12.7,12.7-19,19c-0.3,0.3-0.4,0.7-0.4,1c0,0.2,0.1,0.5,0.3,0.7
		c0.6,0.5,1.2,0.3,1.7-0.2c6.5-6.5,13-13,19.5-19.5l1.7-1.7c1.9-1.9,3.8-3.8,5.7-5.6c1-1,2.3-1.5,3.7-1.4c1.4,0,2.7,0.6,3.6,1.6
		c1.9,2,1.9,5.3-0.1,7.3c-8.5,8.5-17,17-25.6,25.5c-0.3,0.3-0.3,0.6-0.3,0.8c0,0.3,0.1,0.5,0.3,0.7c0.5,0.5,1.1,0.4,1.6,0L95,126.4
		c0.6-0.6,1.3-1.3,1.9-1.9c1.5-1.5,3-3,4.6-4.5c1.1-1.1,2.5-1.6,4-1.5c1.5,0.1,2.8,0.8,3.8,2c1.7,2.1,1.4,5.1-0.7,7.2l-6.5,6.5
		c-6.1,6.1-12.2,12.2-18.3,18.3c-0.5,0.5-0.6,0.8-0.7,0.9c-0.2,0.5,0.1,1,0.4,1.2c0.5,0.3,1,0.2,1.6-0.3c1.7-1.7,3.4-3.4,5.1-5.1
		c1.4-1.4,2.7-2.7,4.1-4.1l1.7-1.7c2-2,4.1-4.1,6.2-6.1c1-0.9,2.2-1.5,3.6-1.5c0,0,0.1,0,0.1,0c1.4,0,2.7,0.6,3.7,1.7
		c1.9,2,1.8,5.3-0.1,7.3l-15.8,15.8c-3.2,3.2-6.4,6.4-9.7,9.7c-0.5,0.5-0.6,1.2-0.1,1.7c0.4,0.4,1.1,0.4,1.6-0.1
		c0.7-0.7,1.4-1.4,2.1-2.1L95.6,161.4z"/>
	<path class="st2" d="M55.3,57.1l63.5,0c2,0,3.9,0,5.9,0c0.4,0,0.8-0.2,0.9-0.5c0.1-0.2,0.3-0.6,0-1.1c-0.1-0.3-0.3-0.6-1.3-0.6
		c0,0,0,0,0,0c-9,0-18,0-26.9,0l-6.1,0v0l-12.2,0c-3.4,0-6.8,0-10.3,0c-4.8,0-9.5,0-14.3,0c-6.1,0-11.3,5.1-11.4,11.1
		c-0.1,7-0.1,14.1,0,21c0,2.5,0,5.1,0,7.6c0,0.5,0.2,0.9,0.6,1c0.4,0.2,0.8,0.1,1-0.1c0.3-0.2,0.5-0.6,0.5-1.1c0-6.7,0-13.4,0-20.1
		l0-7.2C45.3,61.2,49.4,57.1,55.3,57.1z"/>
	<path class="st2" d="M148.2,47.4c-1.1,2.9-2.4,5.9-4.1,8.8c-2.7,4.5-6.8,7.9-12.9,10.5c-0.4,0.2-0.8,0.3-1.1,0.5
		c4.4,1.6,8.4,3.6,11.8,6.8c3.5,3.3,5.8,7.3,7.7,11.5c1.6-4.1,3.6-8.3,6.9-11.9c3.3-3.6,7.4-5.9,11.5-7.7c-4.2-1.6-8.4-3.7-11.9-7
		C152.4,55.6,150.1,51.5,148.2,47.4z M161,66.1l-2.4,1.7c-3.2,2.3-5.8,5-7.8,8.3l-1.5,2.5l-1.8-2.3c-2.6-3.4-5.3-5.9-8.4-7.9
		l-2.6-1.6l2.5-1.7c3.2-2.2,5.8-5,7.8-8.3l1.6-2.6l1.7,2.5c2.2,3.1,4.9,5.7,8.3,7.8L161,66.1z"/>
	<path class="st2" d="M161.3,121.1c0-5.1,0-10.2,0-15.3c0-4.5,0-9.1,0-13.6c0-0.5,0-0.9-0.1-1.1c-0.2-0.3-0.5-0.8-1.3-0.6
		c-0.4,0.1-0.8,0.6-0.8,1.1c0,1.5,0,3.1,0,4.6l0,15.8c0,15.7,0,31.4,0,47.1v0.3c0,1.8,0,3.8-0.7,5.8l1.6,1.6
		c0.9-1.7,1.3-3.6,1.3-5.6C161.4,147.8,161.3,134.5,161.3,121.1z"/>
	<path class="st2" d="M111.1,173.2l6.2,0c10.7,0,21.4,0,32.1,0c0.9,0,1.7-0.1,2.6-0.3c2.4-0.5,4.3-1.5,5.8-2.9l-1.5-1.5
		c-2.6,2.2-5.8,2.5-8.7,2.5c-11.1-0.1-22.5-0.1-33.4-0.1c-4,0-8,0-11.9,0l-0.3,0c-0.1,0-0.2,0-0.3,0c-0.1,0-0.2,0-0.3,0
		c-0.5,0.1-0.8,0.4-0.9,0.6c-0.1,0.2-0.2,0.6,0,1c0.2,0.3,0.4,0.6,1.3,0.6L111.1,173.2z"/>
	<path class="st2" d="M38.6,144.9c0-7.4,0-14.7,0-22.1c0,0,0,0,0,0l-2.2-2.2c0,7.6,0,15.2,0,22.8l0,0.5c0,0.4,0,0.8,0,1.2
		c0,0.4,0.3,0.7,0.4,0.8c0.1,0.1,0.4,0.3,0.8,0.2C38.2,146.1,38.6,145.6,38.6,144.9z"/>
</g>
<path class="st2" d="M172.5,97.8h-11.8c-0.4,0-0.7-0.3-0.7-0.7l0,0c0-0.4,0.3-0.7,0.7-0.7h11.8c0.4,0,0.7,0.3,0.7,0.7l0,0
	C173.3,97.5,172.9,97.8,172.5,97.8z"/>
<path class="st2" d="M172.5,103.8h-11.8c-0.4,0-0.7-0.3-0.7-0.7l0,0c0-0.4,0.3-0.7,0.7-0.7h11.8c0.4,0,0.7,0.3,0.7,0.7l0,0
	C173.3,103.4,172.9,103.8,172.5,103.8z"/>
<path class="st2" d="M172.5,109.7h-11.8c-0.4,0-0.7-0.3-0.7-0.7l0,0c0-0.4,0.3-0.7,0.7-0.7h11.8c0.4,0,0.7,0.3,0.7,0.7l0,0
	C173.3,109.3,172.9,109.7,172.5,109.7z"/>
<path class="st2" d="M172.5,115.6h-11.8c-0.4,0-0.7-0.3-0.7-0.7v0c0-0.4,0.3-0.7,0.7-0.7h11.8c0.4,0,0.7,0.3,0.7,0.7v0
	C173.3,115.2,172.9,115.6,172.5,115.6z"/>
<path class="st2" d="M172.5,121.5h-11.8c-0.4,0-0.7-0.3-0.7-0.7v0c0-0.4,0.3-0.7,0.7-0.7h11.8c0.4,0,0.7,0.3,0.7,0.7v0
	C173.3,121.1,172.9,121.5,172.5,121.5z"/>
<path class="st2" d="M56.9,67.6H45.1c-0.4,0-0.7-0.3-0.7-0.7l0,0c0-0.4,0.3-0.7,0.7-0.7h11.8c0.4,0,0.7,0.3,0.7,0.7l0,0
	C57.6,67.3,57.3,67.6,56.9,67.6z"/>
<path class="st2" d="M56.9,73.5H45.1c-0.4,0-0.7-0.3-0.7-0.7l0,0c0-0.4,0.3-0.7,0.7-0.7h11.8c0.4,0,0.7,0.3,0.7,0.7l0,0
	C57.6,73.2,57.3,73.5,56.9,73.5z"/>
<path class="st2" d="M56.9,79.4H45.1c-0.4,0-0.7-0.3-0.7-0.7l0,0c0-0.4,0.3-0.7,0.7-0.7h11.8c0.4,0,0.7,0.3,0.7,0.7l0,0
	C57.6,79.1,57.3,79.4,56.9,79.4z"/>
<path class="st2" d="M56.9,85.3H45.1c-0.4,0-0.7-0.3-0.7-0.7l0,0c0-0.4,0.3-0.7,0.7-0.7h11.8c0.4,0,0.7,0.3,0.7,0.7l0,0
	C57.6,85,57.3,85.3,56.9,85.3z"/>
<path class="st2" d="M56.9,91.2H45.1c-0.4,0-0.7-0.3-0.7-0.7l0,0c0-0.4,0.3-0.7,0.7-0.7h11.8c0.4,0,0.7,0.3,0.7,0.7l0,0
	C57.6,90.9,57.3,91.2,56.9,91.2z"/>
<path class="st2" d="M172.5,127.4h-11.8c-0.4,0-0.7-0.3-0.7-0.7l0,0c0-0.4,0.3-0.7,0.7-0.7h11.8c0.4,0,0.7,0.3,0.7,0.7l0,0
	C173.3,127,172.9,127.4,172.5,127.4z"/>
<path class="st2" d="M172.5,133.3h-11.8c-0.4,0-0.7-0.3-0.7-0.7l0,0c0-0.4,0.3-0.7,0.7-0.7h11.8c0.4,0,0.7,0.3,0.7,0.7l0,0
	C173.3,132.9,172.9,133.3,172.5,133.3z"/>
<path class="st2" d="M172.5,139.2h-11.8c-0.4,0-0.7-0.3-0.7-0.7l0,0c0-0.4,0.3-0.7,0.7-0.7h11.8c0.4,0,0.7,0.3,0.7,0.7l0,0
	C173.3,138.9,172.9,139.2,172.5,139.2z"/>
<path class="st2" d="M172.5,145.1h-11.8c-0.4,0-0.7-0.3-0.7-0.7l0,0c0-0.4,0.3-0.7,0.7-0.7h11.8c0.4,0,0.7,0.3,0.7,0.7l0,0
	C173.3,144.8,172.9,145.1,172.5,145.1z"/>
<path class="st2" d="M172.5,151h-11.8c-0.4,0-0.7-0.3-0.7-0.7l0,0c0-0.4,0.3-0.7,0.7-0.7h11.8c0.4,0,0.7,0.3,0.7,0.7l0,0
	C173.3,150.7,172.9,151,172.5,151z"/>
</svg>
